# xmcd CD database file
#
# Track frame offsets:
#	150
#	11328
#	21532
#	32180
#	40156
#	48873
#	59388
#	68535
#	79616
#	87680
#	99460
#	107999
#	116910
#	131939
#	142640
#	151506
#	164284
#	175281
#	188018
#	196176
#	206699
#	217432
#
# Disc length: 3085 seconds
#
# Revision: 0
# Processed by: cddbd v1.4PL0 Copyright (c) Steve Scherf et al.
# Submitted via: CDex 1.50Beta6
#
DISCID=340c0b16
DTITLE=Roger Miller - King of The Road Greatest hits and favorites
DYEAR=1900
DGENRE=Country
TTITLE0=King of the Road
TTITLE1=Engine Engine No. 9
TTITLE2=When two worlds collide
TTITLE3=Dang me
TTITLE4=England swings
TTITLE5=Kansas City Star
TTITLE6=Chug-A-Lug
TTITLE7=Husbands and wifes
TTITLE8=Do-Wacka-Do
TTITLE9=Walkin in the sunshine
TTITLE10=You cant rollerskate in a buffalo herd
TTITLE11=My uncle used to love me but she died
TTITLE12=Me an Bobby McGee
TTITLE13=Dont we all have the right
TTITLE14=Billy Bayou
TTITLE15=Heartaches by the number
TTITLE16=Everythings coming up Roses
TTITLE17=The last word in lonesome is me
TTITLE18=In the summertime
TTITLE19=Release me
TTITLE20=Burning Bridges
TTITLE21=My elusive dreams
EXTD=
EXTT0=
EXTT1=
EXTT2=
EXTT3=
EXTT4=
EXTT5=
EXTT6=
EXTT7=
EXTT8=
EXTT9=
EXTT10=
EXTT11=
EXTT12=
EXTT13=
EXTT14=
EXTT15=
EXTT16=
EXTT17=
EXTT18=
EXTT19=
EXTT20=
EXTT21=
PLAYORDER=
